<svg id="Layer_1" fill="currentColor" enable-background="new 0 0 512 512" height="512" viewBox="0 0 512 512" width="512" xmlns="http://www.w3.org/2000/svg"><g><path d="m210.875 301.125v195.875c0 8.284 6.716 15 15 15h60.25c8.284 0 15-6.716 15-15v-195.875z"/><path d="m352.238 210.875c-16.681-15.764-38.507-40.648-47.242-60.375h-97.992c-8.736 19.729-30.563 44.614-47.241 60.375z"/><path d="m161.903 240.875c13.909 7.549 30.806 19.454 40.68 30.25h106.853c3.705-4.13 8.791-8.822 15.558-13.961 10.014-7.606 20.225-13.552 25.164-16.289z"/><path d="m301.125 120.5v-15.125c0-19.624-12.596-36.354-30.125-42.552v-47.823c0-8.284-6.716-15-15-15s-15 6.716-15 15v47.823c-17.529 6.198-30.125 22.927-30.125 42.552v15.125z"/><path d="m141.303 190.988c5.885-5.831 5.929-15.328.098-21.213-36.068-36.401-86.18-41.623-88.295-41.828-8.244-.794-15.576 5.242-16.374 13.487-.797 8.246 5.242 15.577 13.488 16.374.41.039 41.35 4.298 69.871 33.082 2.933 2.96 6.793 4.442 10.656 4.442 3.814.001 7.631-1.446 10.556-4.344z"/><path d="m98.229 257.128c8.398.973 15.979-5.167 16.693-13.655.683-8.121-5.505-15.277-13.604-16.188-18.772-2.111-34.668 2.231-45.707 6.968-9.042 3.88-11.997 15.236-5.957 23.002 4.189 5.388 11.479 7.262 17.751 4.572 7.31-3.134 18.147-6.182 30.824-4.699z"/><path d="m99.974 291.25c-7.846 0-15.363 6.899-15 15 .364 8.127 6.591 15 15 15 7.846 0 15.363-6.899 15-15-.364-8.127-6.591-15-15-15z"/><path d="m135.5 117.695c7.846 0 15.363-6.899 15-15-.364-8.127-6.591-15-15-15-7.846 0-15.363 6.899-15 15 .364 8.127 6.591 15 15 15z"/><path d="m44.421 195.444c-.364-8.127-6.591-15-15-15-7.846 0-15.363 6.899-15 15 .364 8.127 6.591 15 15 15 7.846 0 15.363-6.9 15-15z"/><path d="m475.269 141.435c-.798-8.245-8.125-14.273-16.374-13.487-2.115.205-52.228 5.427-88.295 41.828-5.831 5.885-5.787 15.382.098 21.213 2.925 2.898 6.741 4.345 10.558 4.345 3.861 0 7.723-1.482 10.655-4.442 28.265-28.526 69.499-33.044 69.871-33.082 8.244-.798 14.283-8.129 13.487-16.375z"/><path d="m410.28 227.331c-8.228.964-14.116 8.415-13.153 16.644.964 8.229 8.412 14.127 16.644 13.153 12.676-1.484 23.514 1.565 30.824 4.7 6.272 2.69 13.562.815 17.751-4.572 5.996-7.711 3.167-19.068-5.804-22.935-11.124-4.795-27.229-9.215-46.262-6.99z"/><path d="m412.026 291.25c-7.846 0-15.363 6.899-15 15 .364 8.127 6.591 15 15 15 7.846 0 15.363-6.899 15-15-.364-8.127-6.591-15-15-15z"/><path d="m376.5 117.695c7.846 0 15.363-6.899 15-15-.364-8.127-6.591-15-15-15-7.846 0-15.363 6.899-15 15 .364 8.127 6.591 15 15 15z"/><path d="m482.579 180.444c-7.846 0-15.363 6.899-15 15 .364 8.127 6.591 15 15 15 7.846 0 15.363-6.899 15-15-.364-8.127-6.591-15-15-15z"/></g></svg>